<svg width="273" height="211" viewBox="0 0 273 211" fill="none" xmlns="http://www.w3.org/2000/svg">
<path d="M225.5 94C225.5 143.153 185.653 183 136.5 183C87.3467 183 47.5 143.153 47.5 94C47.5 44.8467 87.3467 5 136.5 5C185.653 5 225.5 44.8467 225.5 94Z" fill="black" fill-opacity="0.08" stroke="#10227A" stroke-width="10"/>
<ellipse cx="109.54" cy="116.942" rx="8.44928" ry="7.25363" stroke="#0019ED" stroke-width="5"/>
<ellipse cx="163.615" cy="116.942" rx="8.44928" ry="7.25363" stroke="#0019ED" stroke-width="5"/>
<path d="M153.898 78.8606L153.898 67.1668C153.898 66.6145 153.451 66.1667 152.898 66.1667H89.4165C88.8642 66.1667 88.4165 66.6145 88.4165 67.1667V105.062C88.4165 105.614 88.8642 106.062 89.4165 106.062H90.5288M153.898 78.8606L154.088 106.062M153.898 78.8606H164.46M175.446 115.804H184.583C185.135 115.804 185.583 115.356 185.583 114.804V98.8081M152.289 115.804H143.716M121.313 115.804H128.551M98.4163 115.804C98.4163 115.804 93.8488 115.804 90.922 115.804V115.804C90.7049 115.804 90.5288 115.628 90.5288 115.411V106.062M90.5288 106.062H128.551M153.898 106.062H154.088M128.551 115.804V106.062M128.551 115.804H143.716M128.551 106.062H143.716M143.716 115.804V106.062M143.716 106.062H154.088M164.46 78.8606H170.797L183.84 90.058C184.947 91.0079 185.583 92.3935 185.583 93.8518V98.8081M164.46 78.8606V97.8081C164.46 98.3604 164.908 98.8081 165.46 98.8081H185.583" stroke="#0019ED" stroke-width="5" stroke-linecap="round" stroke-linejoin="round"/>
</svg>
