<svg width="60" height="60" viewBox="0 0 60 60" fill="none" xmlns="http://www.w3.org/2000/svg">
<circle cx="30" cy="20" r="9" stroke="#33363F" stroke-width="2" stroke-linecap="round"/>
<path d="M36.8708 19.25C37.7328 17.7571 39.1525 16.6677 40.8177 16.2215C42.4828 15.7753 44.2571 16.0089 45.75 16.8708C47.2429 17.7328 48.3323 19.1525 48.7785 20.8177C49.2247 22.4828 48.9911 24.2571 48.1292 25.75C47.2672 27.2429 45.8475 28.3323 44.1823 28.7785C42.5172 29.2247 40.7429 28.9911 39.25 28.1292C37.7571 27.2672 36.6677 25.8475 36.2215 24.1823C35.7753 22.5172 36.0089 20.7429 36.8708 19.25L36.8708 19.25Z" stroke="#33363F" stroke-width="2"/>
<path d="M11.8708 19.25C12.7328 17.7571 14.1525 16.6677 15.8177 16.2215C17.4828 15.7753 19.2571 16.0089 20.75 16.8708C22.2429 17.7328 23.3323 19.1525 23.7785 20.8177C24.2247 22.4828 23.9911 24.2571 23.1292 25.75C22.2672 27.2429 20.8475 28.3323 19.1823 28.7785C17.5172 29.2247 15.7429 28.9911 14.25 28.1292C12.7571 27.2672 11.6677 25.8475 11.2215 24.1823C10.7753 22.5172 11.0089 20.7429 11.8708 19.25L11.8708 19.25Z" stroke="#33363F" stroke-width="2"/>
<path d="M42.204 45L41.2237 45.1974L41.3854 46H42.204V45ZM52.2841 43.8929L51.3115 44.1254L51.3115 44.1254L52.2841 43.8929ZM36.952 36.7763L36.3472 35.98L35.1906 36.8585L36.4239 37.6255L36.952 36.7763ZM51.3672 44H42.204V46H51.3672V44ZM51.3115 44.1254C51.3094 44.1168 51.3076 44.0972 51.3136 44.0729C51.3192 44.0501 51.3293 44.0329 51.3388 44.0216C51.3579 43.999 51.3739 44 51.3672 44V46C52.5455 46 53.5626 44.9398 53.2566 43.6603L51.3115 44.1254ZM42.5 36C45.6142 36 47.6322 37.3906 48.9766 39.0906C50.3485 40.8256 51.0157 42.8887 51.3115 44.1254L53.2566 43.6603C52.93 42.2942 52.1749 39.9108 50.5454 37.8501C48.8882 35.7544 46.3254 34 42.5 34V36ZM37.5569 37.5727C38.7748 36.6476 40.372 36 42.5 36V34C39.9282 34 37.9074 34.7949 36.3472 35.98L37.5569 37.5727ZM36.4239 37.6255C39.5387 39.5627 40.7554 42.872 41.2237 45.1974L43.1843 44.8026C42.6723 42.2599 41.2843 38.2931 37.4802 35.9272L36.4239 37.6255Z" fill="#33363F"/>
<path d="M23.0479 36.7763L23.576 37.6255L24.8094 36.8584L23.6528 35.98L23.0479 36.7763ZM7.71587 43.8928L6.7433 43.6603L7.71587 43.8928ZM17.7959 45V46H18.6145L18.7762 45.1974L17.7959 45ZM17.5 36C19.628 36 21.2252 36.6476 22.4431 37.5726L23.6528 35.98C22.0925 34.7949 20.0718 34 17.5 34V36ZM8.68845 44.1254C8.98421 42.8887 9.65143 40.8256 11.0234 39.0906C12.3678 37.3906 14.3858 36 17.5 36V34C13.6746 34 11.1118 35.7544 9.45463 37.8501C7.82503 39.9108 7.06999 42.2942 6.7433 43.6603L8.68845 44.1254ZM8.63276 44C8.62603 44 8.64208 43.999 8.66118 44.0216C8.67068 44.0329 8.68075 44.0501 8.68636 44.0729C8.69236 44.0972 8.69051 44.1168 8.68845 44.1254L6.7433 43.6603C6.43731 44.9398 7.45443 46 8.63276 46V44ZM17.7959 44H8.63276V46H17.7959V44ZM18.7762 45.1974C19.2445 42.872 20.4612 39.5627 23.576 37.6255L22.5198 35.9271C18.7156 38.2931 17.3276 42.2599 16.8155 44.8026L18.7762 45.1974Z" fill="#33363F"/>
<path d="M30 35C40.3392 35 42.1265 43.5518 42.4354 46.5085C42.4928 47.0578 42.0523 47.5 41.5 47.5H18.5C17.9477 47.5 17.5072 47.0578 17.5646 46.5085C17.8735 43.5518 19.6609 35 30 35Z" stroke="#33363F" stroke-width="2" stroke-linecap="round"/>
</svg>
