<svg width="49" height="48" viewBox="0 0 49 48" fill="none" xmlns="http://www.w3.org/2000/svg">
<path d="M32.6304 12.6339L32.6305 1.95459C32.6305 1.40231 32.1827 0.95459 31.6305 0.95459H2.125C1.57272 0.95459 1.125 1.4023 1.125 1.95459V36.6609C1.125 37.2132 1.57272 37.6609 2.125 37.6609H2.1413M32.6304 12.6339L32.7216 37.6609M32.6304 12.6339H37.712M42.9979 46.6244H46.875C47.4273 46.6244 47.875 46.1767 47.875 45.6244V30.987M31.8563 46.6244H27.7311M16.9524 46.6244H20.4348M5.93625 46.6244C5.93625 46.6244 3.73863 46.6244 2.3305 46.6244V46.6244C2.22601 46.6244 2.1413 46.5397 2.1413 46.4352V37.6609M2.1413 37.6609H20.4348M32.6305 37.6609H32.7216M20.4348 46.6244V37.6609M20.4348 46.6244H27.7311M20.4348 37.6609H27.7311M27.7311 46.6244V37.6609M27.7311 37.6609H32.7216M37.712 12.6339H40.7609L47.1452 23.115C47.6225 23.8986 47.875 24.7985 47.875 25.7161V30.987M37.712 12.6339V29.987C37.712 30.5393 38.1597 30.987 38.712 30.987H47.875" stroke="black" stroke-width="1.5" stroke-linecap="round" stroke-linejoin="round"/>
</svg>
